Coordinates
version=1
nRows=34
nColumns=38
inDegrees=no

Units are S.I. units (second, meters, Newtons, ...)
If the header above contains a line with 'inDegrees', this indicates whether rotational values are in degrees (yes) or radians (no).

endheader
time	pelvis_tilt	pelvis_list	pelvis_rotation	pelvis_tx	pelvis_ty	pelvis_tz	hip_flexion_r	hip_adduction_r	hip_rotation_r	knee_angle_r	ankle_angle_r	subtalar_angle_r	mtp_angle_r	hip_flexion_l	hip_adduction_l	hip_rotation_l	knee_angle_l	ankle_angle_l	subtalar_angle_l	mtp_angle_l	lumbar_extension	lumbar_bending	lumbar_rotation	arm_flex_r	arm_add_r	arm_rot_r	elbow_flex_r	pro_sup_r	wrist_flex_r	wrist_dev_r	arm_flex_l	arm_add_l	arm_rot_l	elbow_flex_l	pro_sup_l	wrist_flex_l	wrist_dev_l
10	1.28617	1.40023	0.210631	0.683508	1.64184	0.971566	0.107549	0.167328	-0.153226	0.304053	0.115834	0	0	-0.0718475	-0.125002	-0.117713	0.000937879	0.0886855	0	0	-0.00803406	0.20853	0.0564077	-0.116674	-0.2925	0.39787	0.684765	1.12607	0	0	-0.0529804	-0.160722	0.533737	0.615352	1.04389	0	0
10.01	1.27458	1.39941	0.22188	0.683612	1.64183	0.971433	0.109532	0.168013	-0.15244	0.303347	0.11501	0	0	-0.0692892	-0.125557	-0.118454	0.00162339	0.0892785	0	0	-0.00502681	0.208947	0.0567655	-0.117071	-0.2925	0.397554	0.684686	1.12696	0	0	-0.0535412	-0.160362	0.533437	0.614925	1.04474	0	0
10.02	1.24118	1.39353	0.247486	0.683731	1.64068	0.971443	0.114194	0.172463	-0.158444	0.293852	0.107649	0	0	-0.0608709	-0.129763	-0.123774	0.0039766	0.0891916	0	0	-0.00107529	0.215481	0.064857	-0.115392	-0.295515	0.397667	0.684944	1.12726	0	0	-0.0512853	-0.156102	0.533129	0.610884	1.0452	0	0
10.03	1.27678	1.39937	0.220315	0.683673	1.6418	0.971443	0.108838	0.168284	-0.153089	0.302559	0.114854	0	0	-0.0695985	-0.125839	-0.118093	0.00142569	0.0891453	0	0	-0.0046371	0.208975	0.0566425	-0.116503	-0.29289	0.399582	0.685588	1.12259	0	0	-0.0537454	-0.160468	0.534084	0.615764	1.04351	0	0
10.04	1.28938	1.40025	0.20877	0.683652	1.64177	0.97159	0.106295	0.167728	-0.154894	0.302348	0.115414	0	0	-0.0722934	-0.125459	-0.116673	0.00047416	0.0884093	0	0	-0.00700152	0.208348	0.0559869	-0.115357	-0.292965	0.400157	0.685838	1.12373	0	0	-0.053475	-0.160908	0.534109	0.616985	1.04405	0	0
10.05	1.29651	1.40057	0.2021	0.683673	1.64173	0.971674	0.104831	0.167697	-0.155364	0.301993	0.115455	0	0	-0.0737127	-0.125423	-0.11631	6.81733e-05	0.0881308	0	0	-0.00822	0.208192	0.0558678	-0.114262	-0.2934	0.401105	0.686315	1.12455	0	0	-0.0532479	-0.161068	0.534033	0.617744	1.0447	0	0
10.06	1.2979	1.4008	0.200249	0.683715	1.64165	0.971678	0.104782	0.167538	-0.154866	0.302401	0.115661	0	0	-0.0741367	-0.125193	-0.116768	0	0.0880302	0	0	-0.00857615	0.208103	0.0564277	-0.113112	-0.293889	0.402215	0.68702	1.13064	0	0	-0.0534938	-0.160313	0.529854	0.617905	1.05423	0	0
10.07	1.286	1.40068	0.210875	0.683806	1.64158	0.971509	0.107684	0.167235	-0.153966	0.303993	0.116184	0	0	-0.0720669	-0.124833	-0.117719	0	0.0882026	0	0	-0.00610446	0.207964	0.0577333	-0.112825	-0.294209	0.402558	0.687868	1.13146	0	0	-0.0538524	-0.159908	0.528317	0.618203	1.05623	0	0
10.08	1.16824	1.39161	0.325919	0.683608	1.63931	0.970428	0.133494	0.169553	-0.164639	0.300587	0.109519	0	0	-0.0515772	-0.13149	-0.121806	0	0.0744919	0	0	0.0144748	0.213072	0.0591498	-0.110084	-0.295497	0.400599	0.685575	1.13247	0	0	-0.0513604	-0.155558	0.525234	0.612727	1.05896	0	0
10.09	1.30568	1.40118	0.191689	0.683859	1.6415	0.971679	0.103921	0.167575	-0.154384	0.30354	0.116255	0	0	-0.0757908	-0.125097	-0.1176	0	0.0882247	0	0	-0.0098156	0.208027	0.058147	-0.111047	-0.294475	0.399537	0.691671	1.13115	0	0	-0.0534845	-0.160361	0.524315	0.62193	1.05758	0	0
10.1	1.32416	1.40144	0.17446	0.683827	1.64146	0.971873	0.100068	0.168002	-0.155158	0.302236	0.115882	0	0	-0.0789369	-0.125581	-0.11718	0	0.0882344	0	0	-0.0133066	0.208249	0.0575901	-0.109775	-0.294604	0.397524	0.694654	1.13255	0	0	-0.0531633	-0.160728	0.52114	0.624741	1.06081	0	0
10.11	1.33072	1.40169	0.168905	0.68381	1.64136	0.971936	0.0988827	0.167964	-0.156015	0.30192	0.115825	0	0	-0.07939	-0.125725	-0.117609	0.000326286	0.0885566	0	0	-0.0143923	0.208107	0.0568342	-0.108617	-0.294711	0.39566	0.697927	1.13323	0	0	-0.0533479	-0.161022	0.516511	0.628072	1.06613	0	0
10.12	1.33045	1.40212	0.169185	0.68381	1.64118	0.971913	0.0994237	0.167401	-0.156829	0.302714	0.116181	0	0	-0.078636	-0.125346	-0.118626	0.00142083	0.0890162	0	0	-0.0144793	0.207748	0.056886	-0.107676	-0.29468	0.393314	0.701892	1.13134	0	0	-0.0536569	-0.160943	0.509941	0.631859	1.07446	0	0
10.13	1.32541	1.40249	0.173199	0.683869	1.64098	0.971841	0.101049	0.166696	-0.157665	0.304033	0.116716	0	0	-0.0774306	-0.124763	-0.119602	0.00212995	0.0892854	0	0	-0.0138027	0.207396	0.0577682	-0.106288	-0.295069	0.390892	0.705905	1.13161	0	0	-0.0545214	-0.160643	0.500894	0.63703	1.0858	0	0
10.14	1.32954	1.40275	0.168852	0.683901	1.6409	0.971884	0.10041	0.166586	-0.15764	0.304108	0.116699	0	0	-0.078165	-0.12461	-0.119754	0.00214205	0.0892594	0	0	-0.014704	0.207401	0.0575411	-0.104244	-0.29436	0.382495	0.708165	1.1579	0	0	-0.0567083	-0.157887	0.476666	0.641211	1.13811	0	0
10.15	1.33807	1.40289	0.160546	0.683926	1.64086	0.971985	0.0986785	0.166848	-0.157079	0.303591	0.116392	0	0	-0.0797353	-0.124727	-0.119683	0.00194489	0.089134	0	0	-0.0160255	0.207602	0.0573319	-0.102382	-0.294531	0.378535	0.712789	1.16227	0	0	-0.0578532	-0.158155	0.467427	0.649149	1.14958	0	0
10.16	1.34315	1.40291	0.155317	0.683978	1.64078	0.972053	0.0977803	0.167148	-0.156214	0.303488	0.116133	0	0	-0.080735	-0.124853	-0.119783	0.00170221	0.0889129	0	0	-0.0167225	0.2079	0.057674	-0.100784	-0.29437	0.373234	0.718014	1.16547	0	0	-0.0590568	-0.158477	0.458721	0.658062	1.15909	0	0
10.17	1.26374	1.40192	0.23974	0.683676	1.63951	0.971134	0.117338	0.164312	-0.16118	0.310294	0.117334	0	0	-0.0705927	-0.126677	-0.118908	0	0.074884	0	0	-0.0024081	0.206023	0.0514567	-0.0973405	-0.292342	0.366999	0.719727	1.173	0	0	-0.0594802	-0.159008	0.449158	0.666015	1.17067	0	0
10.18	1.36114	1.40292	0.137505	0.684038	1.64058	0.972282	0.0943101	0.167927	-0.155565	0.302413	0.115294	0	0	-0.084116	-0.125366	-0.11951	0.000952957	0.0883016	0	0	-0.0197878	0.208818	0.0578697	-0.095757	-0.294983	0.365505	0.731086	1.16299	0	0	-0.0608601	-0.160157	0.443648	0.679883	1.17042	0	0
10.19	1.37099	1.403	0.127606	0.684052	1.64043	0.972413	0.0923958	0.168233	-0.155011	0.301736	0.114791	0	0	-0.0858552	-0.125501	-0.119765	0.000743511	0.0880134	0	0	-0.0217231	0.209269	0.0580987	-0.0924967	-0.295441	0.360197	0.738522	1.17177	0	0	-0.06165	-0.160717	0.434029	0.691908	1.18157	0	0
10.2	1.37364	1.40287	0.12505	0.68404	1.64032	0.972453	0.0918688	0.168506	-0.154773	0.301269	0.11441	0	0	-0.0861503	-0.125679	-0.119835	0.000753666	0.0879304	0	0	-0.0218867	0.20979	0.0579074	-0.0892938	-0.295682	0.354454	0.745898	1.18409	0	0	-0.0627034	-0.161053	0.423728	0.704325	1.1941	0	0
10.21	1.37507	1.40273	0.12349	0.684051	1.64018	0.972477	0.091723	0.168781	-0.154473	0.301119	0.114092	0	0	-0.086186	-0.125861	-0.120029	0.000898535	0.0879547	0	0	-0.021874	0.210304	0.0578554	-0.0857982	-0.295997	0.349301	0.7543	1.19643	0	0	-0.0635403	-0.161627	0.413593	0.717777	1.20659	0	0
10.22	1.37697	1.4025	0.12117	0.684137	1.64002	0.972497	0.0917454	0.169101	-0.154676	0.301496	0.113952	0	0	-0.0863821	-0.126218	-0.12047	0.00100528	0.0880616	0	0	-0.0220572	0.210821	0.0580873	-0.0816516	-0.296389	0.345097	0.763552	1.20958	0	0	-0.0640586	-0.162543	0.403724	0.732503	1.21858	0	0
10.23	1.37844	1.40227	0.119262	0.684269	1.63984	0.972513	0.0920176	0.169342	-0.155545	0.302208	0.113911	0	0	-0.086438	-0.126644	-0.12092	0.00119852	0.0881437	0	0	-0.0221465	0.211198	0.0581812	-0.0766206	-0.296626	0.341957	0.772943	1.22701	0	0	-0.0646175	-0.163496	0.393358	0.748261	1.23108	0	0
10.24	1.38058	1.40227	0.116681	0.684317	1.63964	0.972559	0.0919557	0.169444	-0.15511	0.302395	0.113568	0	0	-0.0866282	-0.126722	-0.121235	0.00136181	0.0880629	0	0	-0.0224649	0.211494	0.0584245	-0.0716701	-0.296962	0.337619	0.784086	1.24446	0	0	-0.0648344	-0.164241	0.383597	0.764407	1.24603	0	0
10.25	1.38183	1.40249	0.114701	0.684364	1.63937	0.972616	0.0921913	0.169341	-0.154173	0.302791	0.113301	0	0	-0.0865838	-0.12647	-0.121895	0.00165174	0.0879038	0	0	-0.0229009	0.211519	0.0591423	-0.066731	-0.297646	0.33148	0.796872	1.26574	0	0	-0.0645026	-0.165024	0.37432	0.781256	1.26242	0	0
10.26	1.38301	1.40275	0.111951	0.68449	1.639	0.972688	0.0926986	0.169282	-0.152549	0.30366	0.11303	0	0	-0.0866591	-0.126135	-0.123228	0.00182345	0.0875981	0	0	-0.0238036	0.211476	0.060915	-0.0616067	-0.298266	0.323615	0.811473	1.29562	0	0	-0.0634059	-0.166127	0.366032	0.798773	1.28328	0	0
10.27	1.37223	1.40248	0.121495	0.684656	1.63882	0.972642	0.0950463	0.169501	-0.152153	0.304131	0.112655	0	0	-0.084838	-0.126202	-0.123727	0.00157078	0.0870048	0	0	-0.0215806	0.211745	0.0623632	-0.0579098	-0.295225	0.29732	0.822902	1.40688	0	0	-0.0633117	-0.165652	0.35154	0.815828	1.32935	0	0
10.28	1.36281	1.40184	0.130803	0.684762	1.63875	0.972582	0.0967082	0.170071	-0.152576	0.30365	0.112097	0	0	-0.0831203	-0.126762	-0.123222	0.00127787	0.0865515	0	0	-0.0183863	0.212462	0.0616988	-0.0530442	-0.298659	0.305617	0.84335	1.3724	0	0	-0.0634865	-0.16787	0.347487	0.836869	1.3273	0	0
10.29	1.34939	1.40147	0.143644	0.684861	1.63865	0.972485	0.0992292	0.17025	-0.152126	0.303514	0.11159	0	0	-0.0802591	-0.126929	-0.124103	0.0019701	0.086731	0	0	-0.0148112	0.212795	0.0617983	-0.0487897	-0.299334	0.298699	0.861971	1.40615	0	0	-0.0637873	-0.169052	0.338944	0.858322	1.34845	0	0
10.3	1.33287	1.40125	0.158174	0.685017	1.63846	0.972376	0.102526	0.170299	-0.149838	0.303897	0.111094	0	0	-0.0770219	-0.126669	-0.126309	0.00272637	0.0869076	0	0	-0.0113739	0.213	0.0636557	-0.04467	-0.2981	0.278851	0.880061	1.50684	0	0	-0.0641245	-0.168667	0.324652	0.879619	1.39892	0	0
10.31	1.31856	1.4009	0.170513	0.685187	1.63826	0.972297	0.105159	0.170698	-0.147151	0.303595	0.110325	0	0	-0.0746014	-0.126516	-0.127461	0.00256186	0.0863843	0	0	-0.00773782	0.213386	0.0642362	-0.0384372	-0.302012	0.284752	0.90471	1.49898	0	0	-0.0648249	-0.170513	0.318876	0.904378	1.40848	0	0
10.32	1.30319	1.40066	0.184781	0.685353	1.63806	0.972208	0.107973	0.170883	-0.14543	0.3032	0.109587	0	0	-0.0716367	-0.126339	-0.12768	0.00277251	0.0858841	0	0	-0.00402043	0.213325	0.0642154	-0.0334103	-0.302285	0.275315	0.928532	1.56304	0	0	-0.066075	-0.170843	0.30511	0.929831	1.46129	0	0
10.33	1.28946	1.40049	0.197804	0.685483	1.63784	0.972137	0.110687	0.170826	-0.144659	0.303161	0.109037	0	0	-0.0686222	-0.126173	-0.128125	0.00350863	0.0857026	0	0	-0.000377942	0.213192	0.0637186	-0.0280662	-0.304962	0.278133	0.95566	1.56475	0	0	-0.0666071	-0.173545	0.299163	0.958953	1.47781	0	0
